<svg width="1437" height="840" viewBox="0 0 1437 840" fill="none" xmlns="http://www.w3.org/2000/svg">
<path d="M0 255.2C0 237.278 0 228.317 3.48779 221.472C6.55574 215.451 11.4511 210.556 17.4723 207.488C24.3175 204 33.2783 204 51.2 204H1042.8C1060.72 204 1069.68 204 1076.53 207.488C1082.55 210.556 1087.44 215.451 1090.51 221.472C1094 228.317 1094 237.278 1094 255.2V788.8C1094 806.722 1094 815.683 1090.51 822.528C1087.44 828.549 1082.55 833.444 1076.53 836.512C1069.68 840 1060.72 840 1042.8 840H51.1999C33.2783 840 24.3175 840 17.4723 836.512C11.4511 833.444 6.55574 828.549 3.48779 822.528C0 815.683 0 806.722 0 788.8V255.2Z" fill="#0A6CB4"/>
<path d="M650.362 839.623L437.027 291.626L643.141 240.097L872.887 183.099L1093.55 839.514L650.362 839.623Z" fill="#137C44"/>
<path d="M968.824 149.462L650.473 839.623H1093.26L1436.48 0L968.824 149.462Z" fill="#FFD100"/>
<path d="M650.473 839.623H1093.55L906.802 284.258L650.473 839.623Z" fill="url(#paint0_linear_717_3418)"/>
<defs>
<linearGradient id="paint0_linear_717_3418" x1="650.473" y1="561.995" x2="1093.55" y2="561.995" gradientUnits="userSpaceOnUse">
<stop stop-color="#164194"/>
<stop offset="1" stop-color="#005CA9"/>
</linearGradient>
</defs>
</svg>
