<svg width="511" height="585" viewBox="0 0 511 585" fill="none" xmlns="http://www.w3.org/2000/svg">
<path opacity="0.08" d="M214.031 113.047L213.468 113.873L213.472 113.876L214.031 113.047ZM239.344 147.078L238.411 147.439L238.414 147.446L239.344 147.078ZM239.203 274.766L238.274 274.395L238.272 274.4L239.203 274.766ZM214.875 308.516L215.447 309.336L215.452 309.332L214.875 308.516ZM120.656 130.062L119.835 129.492L119.832 129.496L120.656 130.062ZM158.344 145.812L158.977 146.587L158.985 146.58L158.344 145.812ZM151.734 267.734L150.883 268.259L150.889 268.269L151.734 267.734ZM198.844 268.438L197.986 267.924L197.984 267.927L198.844 268.438ZM199.828 154.812L198.967 155.321L198.971 155.327L199.828 154.812ZM175.078 102.938C190.002 102.938 202.783 106.596 213.468 113.873L214.594 112.22C203.53 104.685 190.342 100.938 175.078 100.938V102.938ZM213.472 113.876C224.235 121.143 232.561 132.302 238.411 147.439L240.277 146.718C234.314 131.292 225.765 119.763 214.591 112.218L213.472 113.876ZM238.414 147.446C244.347 162.464 247.344 183.506 247.344 210.641H249.344C249.344 183.4 246.341 162.068 240.274 146.711L238.414 147.446ZM247.344 210.641C247.344 238.056 244.3 259.285 238.274 274.395L240.132 275.136C246.294 259.684 249.344 238.163 249.344 210.641H247.344ZM238.272 274.4C232.322 289.555 224.314 300.623 214.298 307.699L215.452 309.332C225.873 301.971 234.085 290.538 240.134 275.131L238.272 274.4ZM214.303 307.695C204.29 314.677 191.612 318.203 176.203 318.203V320.203C191.919 320.203 205.023 316.604 215.447 309.336L214.303 307.695ZM176.203 318.203C160.798 318.203 147.927 314.632 137.532 307.549L136.406 309.201C147.198 316.556 160.483 320.203 176.203 320.203V318.203ZM137.532 307.549C127.136 300.465 118.948 289.672 113.004 275.091L111.152 275.846C117.208 290.703 125.614 301.848 136.406 309.201L137.532 307.549ZM113.004 275.091C107.076 260.548 104.078 239.746 104.078 212.609H102.078C102.078 239.847 105.08 260.952 111.152 275.846L113.004 275.091ZM104.078 212.609C104.078 174.697 109.938 147.435 121.481 130.629L119.832 129.496C107.937 146.815 102.078 174.584 102.078 212.609H104.078ZM121.477 130.633C134.318 112.158 152.148 102.938 175.078 102.938V100.938C151.508 100.938 133.057 110.467 119.835 129.492L121.477 130.633ZM176.062 138.344C169.169 138.344 163.036 140.584 157.702 145.045L158.985 146.58C163.964 142.416 169.643 140.344 176.062 140.344V138.344ZM157.711 145.039C152.317 149.451 148.306 157.002 145.564 167.497L147.499 168.003C150.194 157.686 154.058 150.611 158.977 146.586L157.711 145.039ZM145.564 167.497C142.812 178.029 141.453 193.365 141.453 213.453H143.453C143.453 193.416 144.813 178.284 147.499 168.003L145.564 167.497ZM141.453 213.453C141.453 239.619 144.535 257.968 150.883 268.259L152.585 267.209C146.558 257.438 143.453 239.6 143.453 213.453H141.453ZM150.889 268.269C157.314 278.434 165.715 283.641 176.062 283.641V281.641C166.535 281.641 158.717 276.91 152.58 267.2L150.889 268.269ZM176.062 283.641C186.037 283.641 193.931 278.666 199.703 268.948L197.984 267.927C192.507 277.147 185.213 281.641 176.062 281.641V283.641ZM199.702 268.951C206.693 257.267 210.109 237.907 210.109 211.062H208.109C208.109 237.843 204.682 256.733 197.986 267.924L199.702 268.951ZM210.109 211.062C210.109 197.435 209.334 185.893 207.776 176.447C206.219 167.011 203.871 159.607 200.686 154.298L198.971 155.327C201.973 160.331 204.266 167.458 205.802 176.772C207.338 186.076 208.109 197.502 208.109 211.062H210.109ZM200.689 154.304C194.463 143.768 186.251 138.344 176.062 138.344V140.344C185.374 140.344 193.005 145.232 198.967 155.321L200.689 154.304ZM303.891 107.141V106.141H303.332L303.039 106.616L303.891 107.141ZM362.812 107.141H363.812V106.141H362.812V107.141ZM362.812 314V315H363.812V314H362.812ZM323.719 314H322.719V315H323.719V314ZM323.719 144.125H324.719V143.125H323.719V144.125ZM281.109 144.125L280.258 143.601L279.319 145.125H281.109V144.125ZM303.891 108.141H362.812V106.141H303.891V108.141ZM361.812 107.141V314H363.812V107.141H361.812ZM362.812 313H323.719V315H362.812V313ZM324.719 314V144.125H322.719V314H324.719ZM323.719 143.125H281.109V145.125H323.719V143.125ZM281.961 144.649L304.742 107.665L303.039 106.616L280.258 143.601L281.961 144.649Z" fill="#191B21"/>
</svg>
