<svg width="511" height="585" viewBox="0 0 511 585" fill="none" xmlns="http://www.w3.org/2000/svg">
<path opacity="0.08" d="M214.031 113.047L213.468 113.873L213.472 113.876L214.031 113.047ZM239.344 147.078L238.411 147.439L238.414 147.446L239.344 147.078ZM239.203 274.766L238.274 274.395L238.272 274.4L239.203 274.766ZM214.875 308.516L215.447 309.336L215.452 309.332L214.875 308.516ZM120.656 130.062L119.835 129.492L119.832 129.496L120.656 130.062ZM158.344 145.812L158.977 146.587L158.985 146.58L158.344 145.812ZM151.734 267.734L150.883 268.259L150.889 268.269L151.734 267.734ZM198.844 268.438L197.986 267.924L197.984 267.927L198.844 268.438ZM199.828 154.812L198.967 155.321L198.971 155.327L199.828 154.812ZM175.078 102.938C190.002 102.938 202.783 106.596 213.468 113.873L214.594 112.22C203.53 104.685 190.342 100.938 175.078 100.938V102.938ZM213.472 113.876C224.235 121.143 232.561 132.302 238.411 147.439L240.277 146.718C234.314 131.292 225.765 119.763 214.591 112.218L213.472 113.876ZM238.414 147.446C244.347 162.464 247.344 183.506 247.344 210.641H249.344C249.344 183.4 246.341 162.068 240.274 146.711L238.414 147.446ZM247.344 210.641C247.344 238.056 244.3 259.285 238.274 274.395L240.132 275.136C246.294 259.684 249.344 238.163 249.344 210.641H247.344ZM238.272 274.4C232.322 289.555 224.314 300.623 214.298 307.699L215.452 309.332C225.873 301.971 234.085 290.538 240.134 275.131L238.272 274.4ZM214.303 307.695C204.29 314.677 191.612 318.203 176.203 318.203V320.203C191.919 320.203 205.023 316.604 215.447 309.336L214.303 307.695ZM176.203 318.203C160.798 318.203 147.927 314.632 137.532 307.549L136.406 309.201C147.198 316.556 160.483 320.203 176.203 320.203V318.203ZM137.532 307.549C127.136 300.465 118.948 289.672 113.004 275.091L111.152 275.846C117.208 290.703 125.614 301.848 136.406 309.201L137.532 307.549ZM113.004 275.091C107.076 260.548 104.078 239.746 104.078 212.609H102.078C102.078 239.847 105.08 260.952 111.152 275.846L113.004 275.091ZM104.078 212.609C104.078 174.697 109.938 147.435 121.481 130.629L119.832 129.496C107.937 146.815 102.078 174.584 102.078 212.609H104.078ZM121.477 130.633C134.318 112.158 152.148 102.938 175.078 102.938V100.938C151.508 100.938 133.057 110.467 119.835 129.492L121.477 130.633ZM176.062 138.344C169.169 138.344 163.036 140.584 157.702 145.045L158.985 146.58C163.964 142.416 169.643 140.344 176.062 140.344V138.344ZM157.711 145.039C152.317 149.451 148.306 157.002 145.564 167.497L147.499 168.003C150.194 157.686 154.058 150.611 158.977 146.586L157.711 145.039ZM145.564 167.497C142.812 178.029 141.453 193.365 141.453 213.453H143.453C143.453 193.416 144.813 178.284 147.499 168.003L145.564 167.497ZM141.453 213.453C141.453 239.619 144.535 257.968 150.883 268.259L152.585 267.209C146.558 257.438 143.453 239.6 143.453 213.453H141.453ZM150.889 268.269C157.314 278.434 165.715 283.641 176.062 283.641V281.641C166.535 281.641 158.717 276.91 152.58 267.2L150.889 268.269ZM176.062 283.641C186.037 283.641 193.931 278.666 199.703 268.948L197.984 267.927C192.507 277.147 185.213 281.641 176.062 281.641V283.641ZM199.702 268.951C206.693 257.267 210.109 237.907 210.109 211.062H208.109C208.109 237.843 204.682 256.733 197.986 267.924L199.702 268.951ZM210.109 211.062C210.109 197.435 209.334 185.893 207.776 176.447C206.219 167.011 203.871 159.607 200.686 154.298L198.971 155.327C201.973 160.331 204.266 167.458 205.802 176.772C207.338 186.076 208.109 197.502 208.109 211.062H210.109ZM200.689 154.304C194.463 143.768 186.251 138.344 176.062 138.344V140.344C185.374 140.344 193.005 145.232 198.967 155.321L200.689 154.304ZM306.703 173.797V174.797H307.669L307.703 173.832L306.703 173.797ZM268.312 173.797L267.314 173.751L267.265 174.797H268.312V173.797ZM289.266 121.203L289.968 121.915L289.968 121.915L289.266 121.203ZM372.516 109.953L372.028 110.826L372.038 110.832L372.516 109.953ZM395.578 132.875L394.709 133.37L394.715 133.38L395.578 132.875ZM393.75 202.906L392.854 202.461L392.852 202.466L393.75 202.906ZM355.5 253.109L354.779 252.416L354.774 252.421L355.5 253.109ZM332.297 277.578L331.571 276.89L329.97 278.578H332.297V277.578ZM405.984 277.578H406.984V276.578H405.984V277.578ZM405.984 314V315H406.984V314H405.984ZM262.688 314H261.688V315H262.688V314ZM262.688 295.156L261.974 294.456L261.688 294.748V295.156H262.688ZM326.672 229.906L325.961 229.203L325.958 229.206L326.672 229.906ZM357.469 192.219L356.589 191.744L356.587 191.747L357.469 192.219ZM357.188 146.656L356.48 147.363L356.487 147.37L356.493 147.376L357.188 146.656ZM306.703 172.797H268.312V174.797H306.703V172.797ZM269.311 173.843C270.334 151.721 277.248 134.45 289.968 121.915L288.564 120.491C275.408 133.456 268.354 151.247 267.314 173.751L269.311 173.843ZM289.968 121.915C302.79 109.277 319.215 102.938 339.328 102.938V100.938C318.754 100.938 301.804 107.441 288.564 120.491L289.968 121.915ZM339.328 102.938C351.745 102.938 362.635 105.577 372.028 110.826L373.003 109.08C363.271 103.642 352.036 100.938 339.328 100.938V102.938ZM372.038 110.832C381.522 115.988 389.078 123.492 394.709 133.37L396.447 132.38C390.641 122.195 382.821 114.418 372.993 109.075L372.038 110.832ZM394.715 133.38C400.449 143.182 403.297 153.135 403.297 163.25H405.297C405.297 152.74 402.333 142.443 396.441 132.37L394.715 133.38ZM403.297 163.25C403.297 175.339 399.836 188.405 392.854 202.461L394.646 203.351C401.726 189.095 405.297 175.723 405.297 163.25H403.297ZM392.852 202.466C385.981 216.487 373.313 233.134 354.779 252.416L356.221 253.802C374.812 234.46 387.644 217.638 394.648 203.346L392.852 202.466ZM354.774 252.421L331.571 276.89L333.022 278.266L356.226 253.797L354.774 252.421ZM332.297 278.578H405.984V276.578H332.297V278.578ZM404.984 277.578V314H406.984V277.578H404.984ZM405.984 313H262.688V315H405.984V313ZM263.688 314V295.156H261.688V314H263.688ZM263.401 295.856L327.386 230.606L325.958 229.206L261.974 294.456L263.401 295.856ZM327.383 230.609C342.864 214.94 353.216 202.293 358.351 192.69L356.587 191.747C351.596 201.082 341.417 213.56 325.961 229.203L327.383 230.609ZM358.349 192.693C363.553 183.042 366.203 174.251 366.203 166.344H364.203C364.203 173.811 361.697 182.271 356.589 191.744L358.349 192.693ZM366.203 166.344C366.203 158.126 363.436 151.296 357.882 145.937L356.493 147.376C361.626 152.329 364.203 158.624 364.203 166.344H366.203ZM357.895 145.949C352.433 140.488 345.37 137.781 336.797 137.781V139.781C344.911 139.781 351.442 142.325 356.48 147.363L357.895 145.949ZM336.797 137.781C328.075 137.781 320.773 141.043 314.958 147.536L316.448 148.87C321.883 142.801 328.644 139.781 336.797 139.781V137.781ZM314.958 147.536C309.137 154.036 306.085 162.814 305.704 173.762L307.703 173.832C308.072 163.218 311.019 154.933 316.448 148.87L314.958 147.536Z" fill="#191B21"/>
</svg>
