<svg width="511" height="585" viewBox="0 0 511 585" fill="none" xmlns="http://www.w3.org/2000/svg">
<path opacity="0.08" d="M214.031 113.047L213.468 113.873L213.472 113.876L214.031 113.047ZM239.344 147.078L238.411 147.439L238.414 147.446L239.344 147.078ZM239.203 274.766L238.274 274.395L238.272 274.4L239.203 274.766ZM214.875 308.516L215.447 309.336L215.452 309.332L214.875 308.516ZM120.656 130.062L119.835 129.492L119.832 129.496L120.656 130.062ZM158.344 145.812L158.977 146.587L158.985 146.58L158.344 145.812ZM151.734 267.734L150.883 268.259L150.889 268.269L151.734 267.734ZM198.844 268.438L197.986 267.924L197.984 267.927L198.844 268.438ZM199.828 154.812L198.967 155.321L198.971 155.327L199.828 154.812ZM175.078 102.938C190.002 102.938 202.783 106.596 213.468 113.873L214.594 112.22C203.53 104.685 190.342 100.938 175.078 100.938V102.938ZM213.472 113.876C224.235 121.143 232.561 132.302 238.411 147.439L240.277 146.718C234.314 131.292 225.765 119.763 214.591 112.218L213.472 113.876ZM238.414 147.446C244.347 162.464 247.344 183.506 247.344 210.641H249.344C249.344 183.4 246.341 162.068 240.274 146.711L238.414 147.446ZM247.344 210.641C247.344 238.056 244.3 259.285 238.274 274.395L240.132 275.136C246.294 259.684 249.344 238.163 249.344 210.641H247.344ZM238.272 274.4C232.322 289.555 224.314 300.623 214.298 307.699L215.452 309.332C225.873 301.971 234.085 290.538 240.134 275.131L238.272 274.4ZM214.303 307.695C204.29 314.677 191.612 318.203 176.203 318.203V320.203C191.919 320.203 205.023 316.604 215.447 309.336L214.303 307.695ZM176.203 318.203C160.798 318.203 147.927 314.632 137.532 307.549L136.406 309.201C147.198 316.556 160.483 320.203 176.203 320.203V318.203ZM137.532 307.549C127.136 300.465 118.948 289.672 113.004 275.091L111.152 275.846C117.208 290.703 125.614 301.848 136.406 309.201L137.532 307.549ZM113.004 275.091C107.076 260.548 104.078 239.746 104.078 212.609H102.078C102.078 239.847 105.08 260.952 111.152 275.846L113.004 275.091ZM104.078 212.609C104.078 174.697 109.938 147.435 121.481 130.629L119.832 129.496C107.937 146.815 102.078 174.584 102.078 212.609H104.078ZM121.477 130.633C134.318 112.158 152.148 102.938 175.078 102.938V100.938C151.508 100.938 133.057 110.467 119.835 129.492L121.477 130.633ZM176.062 138.344C169.169 138.344 163.036 140.584 157.702 145.045L158.985 146.58C163.964 142.416 169.643 140.344 176.062 140.344V138.344ZM157.711 145.039C152.317 149.451 148.306 157.002 145.564 167.497L147.499 168.003C150.194 157.686 154.058 150.611 158.977 146.586L157.711 145.039ZM145.564 167.497C142.812 178.029 141.453 193.365 141.453 213.453H143.453C143.453 193.416 144.813 178.284 147.499 168.003L145.564 167.497ZM141.453 213.453C141.453 239.619 144.535 257.968 150.883 268.259L152.585 267.209C146.558 257.438 143.453 239.6 143.453 213.453H141.453ZM150.889 268.269C157.314 278.434 165.715 283.641 176.062 283.641V281.641C166.535 281.641 158.717 276.91 152.58 267.2L150.889 268.269ZM176.062 283.641C186.037 283.641 193.931 278.666 199.703 268.948L197.984 267.927C192.507 277.147 185.213 281.641 176.062 281.641V283.641ZM199.702 268.951C206.693 257.267 210.109 237.907 210.109 211.062H208.109C208.109 237.843 204.682 256.733 197.986 267.924L199.702 268.951ZM210.109 211.062C210.109 197.435 209.334 185.893 207.776 176.447C206.219 167.011 203.871 159.607 200.686 154.298L198.971 155.327C201.973 160.331 204.266 167.458 205.802 176.772C207.338 186.076 208.109 197.502 208.109 211.062H210.109ZM200.689 154.304C194.463 143.768 186.251 138.344 176.062 138.344V140.344C185.374 140.344 193.005 145.232 198.967 155.321L200.689 154.304ZM311.203 158.188V159.188H311.94L312.158 158.484L311.203 158.188ZM273.375 158.188L272.383 158.06L272.238 159.188H273.375V158.188ZM289.828 121.344L289.111 120.647L289.11 120.648L289.828 121.344ZM379.828 118.109L379.142 118.837L379.145 118.84L379.828 118.109ZM389.531 181.672L388.699 181.117L388.694 181.124L389.531 181.672ZM367.734 200.094L367.294 199.196L364.999 200.321L367.448 201.052L367.734 200.094ZM397.125 219.781L396.325 220.381L396.332 220.39L397.125 219.781ZM387.281 299.938L387.966 300.667L387.968 300.664L387.281 299.938ZM285.891 301.062L285.197 301.783L285.2 301.785L285.891 301.062ZM265.078 251.422V250.422H264.018L264.08 251.48L265.078 251.422ZM304.031 251.422L305.019 251.266L304.886 250.422H304.031V251.422ZM315.141 275.328L314.464 276.065L314.471 276.071L314.477 276.076L315.141 275.328ZM359.859 274.203L359.163 273.485L359.158 273.49L359.859 274.203ZM321.469 218.797H320.469V219.785L321.457 219.797L321.469 218.797ZM321.469 185.047L321.39 184.05L320.469 184.123V185.047H321.469ZM342.562 180.688L342.987 181.593L342.995 181.589L342.562 180.688ZM353.391 171.547L352.565 170.983L352.56 170.99L352.555 170.997L353.391 171.547ZM351.422 145.391L350.732 146.115L350.741 146.123L351.422 145.391ZM320.625 144.969L321.217 145.775L321.228 145.767L320.625 144.969ZM311.203 157.188H273.375V159.188H311.203V157.188ZM274.367 158.315C276.313 143.206 281.723 131.138 290.546 122.04L289.11 120.648C279.933 130.112 274.374 142.607 272.383 158.06L274.367 158.315ZM290.546 122.04C302.908 109.308 318.441 102.938 337.219 102.938V100.938C317.934 100.938 301.873 107.504 289.111 120.647L290.546 122.04ZM337.219 102.938C353.955 102.938 367.906 108.245 379.142 118.837L380.514 117.382C368.875 106.411 354.42 100.938 337.219 100.938V102.938ZM379.145 118.84C390.489 129.446 396.125 141.984 396.125 156.5H398.125C398.125 141.391 392.23 128.335 380.511 117.379L379.145 118.84ZM396.125 156.5C396.125 165.491 393.651 173.689 388.699 181.117L390.363 182.227C395.536 174.467 398.125 165.884 398.125 156.5H396.125ZM388.694 181.124C383.84 188.543 376.724 194.574 367.294 199.196L368.175 200.992C377.87 196.239 385.285 189.988 390.368 182.219L388.694 181.124ZM367.448 201.052C379.831 204.748 389.437 211.198 396.325 220.381L397.925 219.181C390.75 209.615 380.763 202.939 368.02 199.136L367.448 201.052ZM396.332 220.39C403.311 229.482 406.812 240.232 406.812 252.688H408.812C408.812 239.83 405.189 228.643 397.918 219.172L396.332 220.39ZM406.812 252.688C406.812 270.97 400.085 286.459 386.594 299.211L387.968 300.664C401.852 287.541 408.812 271.53 408.812 252.688H406.812ZM386.597 299.208C373.119 311.855 355.937 318.203 334.969 318.203V320.203C356.375 320.203 374.068 313.707 387.966 300.667L386.597 299.208ZM334.969 318.203C315.123 318.203 299.024 312.229 286.581 300.34L285.2 301.785C298.069 314.083 314.689 320.203 334.969 320.203V318.203ZM286.584 300.342C274.143 288.362 267.284 272.07 266.076 251.364L264.08 251.48C265.31 272.586 272.326 289.388 285.197 301.783L286.584 300.342ZM265.078 252.422H304.031V250.422H265.078V252.422ZM303.043 251.578C304.753 262.402 308.524 270.612 314.464 276.065L315.817 274.591C310.319 269.545 306.685 261.817 305.019 251.266L303.043 251.578ZM314.477 276.076C320.497 281.417 328.056 284.062 337.078 284.062V282.062C328.475 282.062 321.409 279.552 315.804 274.58L314.477 276.076ZM337.078 284.062C346.502 284.062 354.356 281.024 360.561 274.916L359.158 273.49C353.363 279.195 346.029 282.062 337.078 282.062V284.062ZM360.555 274.921C366.845 268.825 370 261.347 370 252.547H368C368 260.809 365.062 267.768 359.163 273.485L360.555 274.921ZM370 252.547C370 242.83 365.752 234.632 357.387 227.998L356.144 229.565C364.091 235.868 368 243.514 368 252.547H370ZM357.387 227.998C348.992 221.339 336.976 217.986 321.481 217.797L321.457 219.797C336.712 219.983 348.227 223.286 356.144 229.565L357.387 227.998ZM322.469 218.797V185.047H320.469V218.797H322.469ZM321.548 186.044C331.051 185.291 338.227 183.827 342.987 181.593L342.138 179.782C337.71 181.86 330.824 183.303 321.39 184.05L321.548 186.044ZM342.995 181.589C347.825 179.271 351.582 176.111 354.226 172.097L352.555 170.997C350.136 174.67 346.675 177.604 342.13 179.786L342.995 181.589ZM354.216 172.111C356.945 168.115 358.328 163.842 358.328 159.312H356.328C356.328 163.408 355.086 167.292 352.565 170.983L354.216 172.111ZM358.328 159.312C358.328 153.424 356.254 148.513 352.102 144.658L350.741 146.123C354.465 149.581 356.328 153.951 356.328 159.312H358.328ZM352.112 144.666C347.956 140.709 342.538 138.766 335.953 138.766V140.766C342.119 140.766 347.012 142.572 350.732 146.115L352.112 144.666ZM335.953 138.766C330.105 138.766 324.785 140.574 320.022 144.171L321.228 145.767C325.652 142.426 330.551 140.766 335.953 140.766V138.766ZM320.033 144.163C315.267 147.664 311.999 152.249 310.248 157.891L312.158 158.484C313.782 153.251 316.795 149.023 321.217 145.775L320.033 144.163Z" fill="#191B21"/>
</svg>
