<svg width="120" height="120" viewBox="0 0 120 120" fill="none" xmlns="http://www.w3.org/2000/svg">
<g filter="url(#filter0_d_546_834)">
<path fill-rule="evenodd" clip-rule="evenodd" d="M60 80C79.3301 80 95 64.3301 95 45C95 25.6699 79.3301 10 60 10C40.6699 10 25 25.6699 25 45C25 64.3301 40.6699 80 60 80ZM52.8867 48L49.3306 45.3999C48.7817 44.9985 48.3735 44.4336 48.1646 43.7864C47.9556 43.1389 47.9565 42.4421 48.167 41.7954C48.3779 41.1484 48.7876 40.585 49.3379 40.1848C49.8877 39.7849 50.5503 39.5688 51.2305 39.5679H55.5996L56.9268 35.4319C57.1353 34.781 57.5454 34.2129 58.0977 33.8101C58.6499 33.407 59.3159 33.1899 59.9995 33.1899C60.6836 33.1899 61.3496 33.407 61.9019 33.8101C62.4541 34.2129 62.8643 34.781 63.0728 35.4319L64.3999 39.5679H68.7729C69.1514 39.5684 69.5244 39.6355 69.875 39.7637C70.1553 39.866 70.4214 40.0073 70.6655 40.1848C71.2158 40.585 71.6255 41.1484 71.8364 41.7954C72.0469 42.4421 72.0479 43.1389 71.8389 43.7864C71.6299 44.4336 71.2217 44.9985 70.6729 45.3999L67.1128 48L68.4648 52.187C68.6743 52.8364 68.6729 53.5359 68.46 54.1843C68.3486 54.5242 68.1821 54.8408 67.9692 55.1228C67.7759 55.3789 67.5439 55.6064 67.2803 55.7964C66.7266 56.1956 66.0605 56.4087 65.3779 56.4055C64.6953 56.4021 64.0317 56.1824 63.4819 55.7781L59.9995 53.219L56.5186 55.781C55.9722 56.1931 55.3066 56.4177 54.6221 56.4211C53.937 56.4246 53.2695 56.2068 52.7188 55.8C52.1582 55.4058 51.7402 54.8411 51.5269 54.1899C51.3135 53.5391 51.3164 52.8364 51.5347 52.187L52.8867 48Z" fill="#2278D4"/>
</g>
<defs>
<filter id="filter0_d_546_834" x="0" y="0" width="120" height="120" filterUnits="userSpaceOnUse" color-interpolation-filters="sRGB">
<feFlood flood-opacity="0" result="BackgroundImageFix"/>
<feColorMatrix in="SourceAlpha" type="matrix" values="0 0 0 0 0 0 0 0 0 0 0 0 0 0 0 0 0 0 127 0" result="hardAlpha"/>
<feOffset dy="15"/>
<feGaussianBlur stdDeviation="12.5"/>
<feColorMatrix type="matrix" values="0 0 0 0 0.133333 0 0 0 0 0.470588 0 0 0 0 0.831373 0 0 0 0.25 0"/>
<feBlend mode="normal" in2="BackgroundImageFix" result="effect1_dropShadow_546_834"/>
<feBlend mode="normal" in="SourceGraphic" in2="effect1_dropShadow_546_834" result="shape"/>
</filter>
</defs>
</svg>
