<svg width="1840" height="490" viewBox="0 0 1840 490" fill="none" xmlns="http://www.w3.org/2000/svg">
    <mask id="mask0_514_48" style="mask-type:alpha" maskUnits="userSpaceOnUse" x="0" y="0" width="1840" height="490">
        <rect width="1840" height="490" fill="white"/>
    </mask>
    <g mask="url(#mask0_514_48)">
        <path d="M-47.1498 439.39C-28.7881 472.69 19.4224 493.7 65.1669 485C87.4209 480.75 107.091 470.571 120.801 456.21C134.247 441.727 140.015 423.736 136.901 406C134.026 388.91 123.549 372.37 106.567 361.2C90.9397 350.91 68.7191 345.64 48.5558 349.2C27.6513 352.93 14.1197 366.91 13.1741 383.43C12.1391 401.55 23.6519 419.12 39.6113 431.7C56.4397 444.89 79.6952 453.28 103.73 449.83C127.765 446.38 143.444 431.69 147.034 413.16C151.276 391.3 140.262 370.51 135.253 349.37C130.915 330.841 133.065 311.74 141.476 294.09C157.512 259.96 194.861 231.31 240.529 222.72C265.522 218.02 294.681 219.02 316.033 231.29C335.468 242.46 343.684 262.54 338.956 280.77C334.177 299.18 316.148 312.72 292.777 316.55C269.611 320.34 244.465 314.27 230.358 299C216.826 284.37 214.411 264.38 221.822 247.5C230 229 250.445 215.46 273.572 209C325.961 194.49 379.705 216.57 413.208 247.92C448.296 280.75 465.226 322.4 496.264 357.27C523.033 387.36 566.541 416.54 616.375 414.11C665.722 411.74 700.222 378.46 715.415 344.27C734.774 300.72 731.669 253.27 748.356 209.18C763.332 169.6 797.155 130.02 851.856 120.65C876.723 116.203 902.826 120.782 922.888 133.11C941.492 144.55 954.654 162.44 952.162 181.38C949.606 200.98 931.066 217.72 908.539 225.57C881.705 234.91 849.582 231.85 823.937 221.57C782.652 205 756.445 169 756.445 132.93C756.547 90.35 795.545 56.09 838.657 33.88C862.59 21.56 888.49 11.88 914.34 2.28998C916.014 1.66998 914.557 -0.27002 912.883 0.289978C862.385 19.1 809.166 39.29 776.902 76.72C763.332 92.44 754.528 110.62 753.646 129.72C753.036 147.178 758.073 164.473 768.29 180C790.089 213.55 836.395 237.64 885.628 232.73C909.241 230.38 931.066 220.46 944.201 204.73C956.601 190.138 958.56 171.587 949.389 155.6C940.151 139.5 921.674 126.97 900.731 120.79C878.498 114.22 853.862 116.06 832.23 123.21C782.396 139.69 755.052 178.54 742.351 217.82C735.17 239.99 731.95 262.72 728.18 285.36C724.219 309.21 719.376 333.58 706.56 355.66C696.121 373.66 680.072 390.31 658.554 400.96C636.49 411.88 609.481 414.824 584.443 409.04C531.402 397.04 498.18 359.14 473.672 323.04C448.59 286.1 425.832 245.88 380.395 221.26C359.401 209.88 334.395 202.26 308.609 202.14C285.251 202.02 261.574 207.98 243.442 219.65C225.975 230.781 215.514 247.281 214.756 264.9C214.066 281.2 221.695 298.14 237.961 308.77C254.227 319.4 277.278 322.27 297.429 318C318.116 313.61 334.484 301.62 340.464 285.43C346.265 269.74 342.572 251.74 329.795 238.71C314.832 223.44 289.366 217.6 265.625 217.94C219.804 218.61 178.135 240.37 153.742 269.94C141.437 284.71 133.629 301.495 130.921 319C129.63 327.863 129.836 336.82 131.535 345.64C133.873 357.79 138.639 369.54 141.897 381.54C147.43 401.95 147.865 428.2 123.127 441.36C99.2325 454.08 68.1824 448.15 47.4825 434.36C28.3158 421.54 13.7619 401.61 16.2408 381.31C17.4163 371.73 23.2302 362.62 33.3502 356.94C42.7419 351.67 54.5486 349.94 65.9336 350.55C118.386 353.55 146.127 401.37 130.27 437.49C121.887 456.53 101.839 471.75 78.2002 479.37C54.4613 487.005 27.7079 486.445 4.52356 477.83C-17.4593 469.744 -34.938 455.681 -44.6581 438.26C-45.3992 436.93 -47.8781 438.08 -47.1498 439.39Z" fill="white" fill-opacity="0.1"/>
    </g>
</svg>
