<svg width="264" height="506" viewBox="0 0 264 506" fill="none" xmlns="http://www.w3.org/2000/svg">
<path d="M47.644 -76.9834C26.1187 -72.3399 8.93822 -54.8537 2.53111 -34.0892C-4.10356 -12.5781 2.60222 9.99968 19.164 25.0752C35.1569 39.6175 58.9862 46.4797 79.6796 38.5295C99.036 31.0912 115.854 9.87878 106.51 -11.3265C98.6164 -29.2323 75.2209 -39.6999 56.9453 -31.8848C38.6698 -24.0697 29.788 -2.19588 33.1302 16.6912C37.3542 40.5206 60.508 53.669 81.6778 60.3321C107.32 68.453 137.194 69.6477 158.2 88.3357C174.762 103.07 182.883 126.025 181.233 147.948C180.479 158.934 176.996 169.559 171.1 178.86C164.579 188.951 153.45 197.591 141.176 198.771C127.523 200.087 117.71 189.612 116.721 176.464C115.648 162.007 124.408 149.37 132.736 138.398C148.643 117.449 169.002 96.5917 195.427 90.1348C218.83 84.4459 246.976 90.8886 259.384 113.168C273.45 138.426 263.438 168.57 248.526 190.857C240.433 202.945 230.812 213.975 221.34 224.99C211.712 236.19 201.998 247.333 192.896 258.988C175.672 281.089 160.647 305.345 154.168 332.894C148.088 358.736 149.902 386.526 164.245 409.417C177.571 430.75 199.089 445.804 221.973 455.454C250.56 467.543 281.635 472.293 311.928 478.081L409.095 496.656L455.687 505.559C456.689 505.751 457.109 504.215 456.113 504.016L360.113 485.662C328.881 479.696 297.429 474.412 266.41 467.415C238.798 461.178 211.1 452.097 188.75 434.128C178.851 426.17 170.147 416.62 163.825 405.555C157.039 393.469 153.183 379.958 152.568 366.11C149.475 305.872 194.09 259.713 230.165 217.125C247.345 196.83 265.009 174.231 267.37 146.725C268.401 134.835 266.517 122.405 260.551 111.945C255.054 102.506 246.558 95.1763 236.416 91.1232C214.528 82.1277 189.873 87.013 170.403 99.4077C159.523 106.355 150.044 115.301 141.582 124.972C132.942 134.857 123.904 145.715 118.656 157.84C114.19 168.165 113.173 180.887 119.758 190.601C125.646 199.276 136.071 202.021 145.934 199.539C167.416 194.135 179.825 172.382 182.449 151.717C185.045 131.223 179.05 109.498 165.653 93.6832C148.586 73.5659 121.948 68.7375 97.5924 62.949C74.524 57.4734 46.2004 48.2361 36.7924 23.9232C29.276 4.50279 37.34 -21.2323 56.8956 -30.1212C76.6502 -39.1168 103.573 -25.1434 107.185 -3.60388C111.523 22.2094 83.3204 40.5561 60.5293 40.293C37.7382 40.0299 15.452 25.3597 6.05822 4.58101C-3.70533 -17.051 3.14978 -42.651 19.3133 -59.2483C27.0885 -67.3534 37.086 -72.9794 48.0493 -75.419C49.0662 -75.6394 48.6253 -77.1754 47.644 -76.9834Z" fill="white" fill-opacity="0.1"/>
</svg>
