<svg width="1920" height="287" viewBox="0 0 1920 287" fill="none" xmlns="http://www.w3.org/2000/svg">
<mask id="mask0_604_960" style="mask-type:alpha" maskUnits="userSpaceOnUse" x="0" y="0" width="1920" height="287">
<rect width="1920" height="287" transform="matrix(1 0 0 -1 0 287)" fill="#D9D9D9"/>
</mask>
<g mask="url(#mask0_604_960)">
<mask id="mask1_604_960" style="mask-type:alpha" maskUnits="userSpaceOnUse" x="0" y="0" width="1920" height="1374">
<rect width="1920" height="1374" fill="#D9D9D9"/>
</mask>
<g mask="url(#mask1_604_960)">
<path d="M-214 -104.275L-31.5445 1264L768.61 1264L235.22 -104.275L-214 -104.275Z" fill="url(#paint0_linear_604_960)"/>
<path d="M934.875 1260.65L490.259 125.189L919.826 18.4211L1398.66 -95.8916L1562.36 -95.8916L1468.68 107.45L1858.53 1260.42L934.875 1260.65Z" fill="url(#paint1_linear_604_960)"/>
<path d="M217.088 -121.043L399.166 324.659L-32.9048 1264L937.711 1264L859.577 1068.03L1400.77 -97.3751L217.088 -121.043Z" fill="#FFD100"/>
<path d="M1569.94 -142.91L849 1415L1935.1 1415L2777 -478L1569.94 -142.91Z" fill="#E20613"/>
<path d="M1400.77 -96.3245L1400.42 -97.5684L391.328 -97.5684L859.996 1069.49L1400.77 -96.3245Z" fill="url(#paint2_linear_604_960)"/>
<path d="M921 1260.65L1756.05 1260.65L1404.09 214.318L921 1260.65Z" fill="url(#paint3_linear_604_960)"/>
</g>
</g>
<defs>
<linearGradient id="paint0_linear_604_960" x1="188.822" y1="1264" x2="188.822" y2="158.131" gradientUnits="userSpaceOnUse">
<stop stop-color="#2B3087"/>
<stop offset="0.82" stop-color="#00B4EC"/>
</linearGradient>
<linearGradient id="paint1_linear_604_960" x1="1174.06" y1="1260.65" x2="1174.06" y2="-99.6808" gradientUnits="userSpaceOnUse">
<stop stop-color="#2B3087"/>
<stop offset="1" stop-color="#00B4EC"/>
</linearGradient>
<linearGradient id="paint2_linear_604_960" x1="945.345" y1="1066.14" x2="945.345" y2="-97.5684" gradientUnits="userSpaceOnUse">
<stop stop-color="#009540"/>
<stop offset="1" stop-color="#26A960"/>
</linearGradient>
<linearGradient id="paint3_linear_604_960" x1="921" y1="737.586" x2="1756.05" y2="737.586" gradientUnits="userSpaceOnUse">
<stop stop-color="#164194"/>
<stop offset="1" stop-color="#005CA9"/>
</linearGradient>
</defs>
</svg>
