<svg width="1920" height="800" viewBox="0 0 1920 800" fill="none" xmlns="http://www.w3.org/2000/svg">
<mask id="mask0_603_878" style="mask-type:alpha" maskUnits="userSpaceOnUse" x="0" y="0" width="1920" height="800">
<rect width="1920" height="800" fill="#D9D9D9"/>
</mask>
<g mask="url(#mask0_603_878)">
<path d="M0 0H1920V800H0V0Z" fill="#171B29"/>
<mask id="mask1_603_878" style="mask-type:alpha" maskUnits="userSpaceOnUse" x="0" y="-287" width="1920" height="1374">
<path fill-rule="evenodd" clip-rule="evenodd" d="M1642 800C1795.54 800 1920 924.465 1920 1078V800H1642ZM1919.86 1087H1920V1078C1920 1081.01 1919.95 1084.01 1919.86 1087Z" fill="#171B29"/>
<path fill-rule="evenodd" clip-rule="evenodd" d="M278 0C124.465 0 0 -124.465 0 -278V0H278ZM0.142944 -287H0V-278C0 -281.011 0.0479126 -284.012 0.142944 -287Z" fill="#171B29"/>
<path d="M0 0H1920V800H0V0Z" fill="#171B29"/>
</mask>
<g mask="url(#mask1_603_878)">
<path d="M-214 -391.275L-31.5445 977L768.61 977L235.22 -391.275L-214 -391.275Z" fill="url(#paint0_linear_603_878)"/>
<path d="M934.875 973.647L490.259 -161.811L919.826 -268.578L1398.66 -382.891L1562.36 -382.891L1468.68 -179.549L1858.53 973.42L934.875 973.647Z" fill="url(#paint1_linear_603_878)"/>
<path d="M217.088 -408.043L399.166 37.6587L-32.9048 977L937.711 977L859.577 781.03L1400.77 -384.376L217.088 -408.043Z" fill="#FFD100"/>
<path d="M1569.94 -429.91L849 1128L1935.1 1128L2777 -765L1569.94 -429.91Z" fill="#E20613"/>
<path d="M1400.77 -383.325L1400.42 -384.568L391.328 -384.568L859.996 782.49L1400.77 -383.325Z" fill="url(#paint2_linear_603_878)"/>
<path d="M-32.9048 977L768.61 977L399.224 37.9873L-32.9048 977Z" fill="url(#paint3_linear_603_878)"/>
<path d="M921 973.647L1756.05 973.647L1404.09 -72.6816L921 973.647Z" fill="url(#paint4_linear_603_878)"/>
</g>
</g>
<defs>
<linearGradient id="paint0_linear_603_878" x1="188.822" y1="977" x2="188.822" y2="-128.869" gradientUnits="userSpaceOnUse">
<stop stop-color="#2B3087"/>
<stop offset="0.82" stop-color="#00B4EC"/>
</linearGradient>
<linearGradient id="paint1_linear_603_878" x1="1174.06" y1="973.647" x2="1174.06" y2="-386.68" gradientUnits="userSpaceOnUse">
<stop stop-color="#2B3087"/>
<stop offset="1" stop-color="#00B4EC"/>
</linearGradient>
<linearGradient id="paint2_linear_603_878" x1="945.345" y1="779.136" x2="945.345" y2="-384.568" gradientUnits="userSpaceOnUse">
<stop stop-color="#009540"/>
<stop offset="1" stop-color="#26A960"/>
</linearGradient>
<linearGradient id="paint3_linear_603_878" x1="367.852" y1="37.9873" x2="367.852" y2="977" gradientUnits="userSpaceOnUse">
<stop stop-color="#3FAE6C"/>
<stop offset="1" stop-color="#006633"/>
</linearGradient>
<linearGradient id="paint4_linear_603_878" x1="921" y1="450.586" x2="1756.05" y2="450.586" gradientUnits="userSpaceOnUse">
<stop stop-color="#164194"/>
<stop offset="1" stop-color="#005CA9"/>
</linearGradient>
</defs>
</svg>
