<svg width="1321" height="800" viewBox="0 0 1321 800" fill="none" xmlns="http://www.w3.org/2000/svg">
<g opacity="0.1">
<mask id="path-1-inside-1_594_847" fill="white">
<path d="M521.032 172L466.802 338.08H425.541L389.076 225.613L351.413 338.08H310.495L256 172H295.781L333.149 288.726L372.23 172H407.745L445.782 289.677L484.38 172H521.032Z"/>
<path d="M654.419 284.701H558.041C559.577 292.301 563.991 299.01 570.357 303.42C576.813 308.006 584.863 310.299 594.506 310.299C600.518 310.407 606.498 309.403 612.146 307.335C617.503 305.216 622.375 302.032 626.471 297.976L646.136 319.331C634.126 333.089 616.599 339.973 593.556 339.983C580.358 340.247 567.288 337.359 555.425 331.56C544.844 326.372 535.971 318.251 529.859 308.162C523.773 297.909 520.657 286.162 520.86 274.235C520.696 262.368 523.764 250.682 529.734 240.432C535.541 230.491 543.987 222.358 554.133 216.94C564.715 211.474 576.438 208.592 588.344 208.53C600.25 208.468 612.002 211.227 622.641 216.582C632.624 221.848 640.888 229.878 646.447 239.715C652.372 250.409 655.355 262.489 655.088 274.718C655.078 275.197 654.855 278.524 654.419 284.701ZM567.974 243.646C562.184 248.586 558.465 255.532 557.558 263.097H620.321C619.359 255.584 615.647 248.697 609.904 243.77C604.061 238.882 596.634 236.307 589.025 236.532C581.362 236.281 573.866 238.806 567.912 243.646H567.974Z"/>
<path d="M803.797 284.701H707.356C708.899 292.298 713.311 299.005 719.672 303.42C726.149 308.006 734.204 310.299 743.837 310.299C749.849 310.406 755.829 309.401 761.478 307.335C766.832 305.212 771.704 302.028 775.802 297.976L795.451 319.33C783.463 333.088 765.941 339.973 742.887 339.983C729.69 340.246 716.619 337.359 704.756 331.56C694.171 326.372 685.293 318.252 679.175 308.162C673.096 297.906 669.98 286.16 670.175 274.234C670.009 262.366 673.084 250.677 679.066 240.432C684.87 230.495 693.31 222.363 703.448 216.94C714.031 211.476 725.754 208.596 737.659 208.533C749.565 208.471 761.317 211.229 771.956 216.581C781.936 221.848 790.194 229.878 795.747 239.714C801.673 250.409 804.655 262.489 804.389 274.718C804.461 275.196 804.264 278.524 803.797 284.701ZM717.352 243.645C711.562 248.586 707.843 255.531 706.936 263.097H769.636C768.675 255.584 764.963 248.696 759.22 243.77C753.418 238.918 746.052 236.345 738.496 236.532C730.823 236.27 723.313 238.796 717.352 243.645Z"/>
<path d="M944.815 222.774C954.53 232.258 959.388 246.333 959.388 265V338.08H922.441V270.693C922.441 260.565 920.23 253.015 915.808 248.044C911.386 243.073 904.992 240.583 896.626 240.572C887.284 240.572 879.862 243.458 874.361 249.23C868.859 255.001 866.098 263.58 866.077 274.967V338.08H829.13V210.435H864.411V225.379C869.464 219.879 875.706 215.61 882.659 212.9C890.299 209.901 898.448 208.418 906.653 208.532C922.389 208.532 935.109 213.28 944.815 222.774Z"/>
<path d="M1074.95 331.903C1070.93 334.777 1066.38 336.833 1061.57 337.955C1056.11 339.323 1050.5 340.004 1044.87 339.983C1029.71 339.983 1017.99 336.104 1009.71 328.346C1001.43 320.589 997.275 309.202 997.255 294.185V241.82H977.621V213.274H997.27V182.202H1034.22V213.274H1065.95V241.82H1034.22V293.78C1034.22 299.146 1035.6 303.31 1038.36 306.259C1041.12 309.207 1045.02 310.658 1050.08 310.658C1055.44 310.831 1060.7 309.182 1065 305.978L1074.95 331.903Z"/>
<path d="M1192.66 222.649C1203.22 232.071 1208.51 246.266 1208.52 265.234V338.08H1173.94V322.185C1167 334.04 1154.05 339.973 1135.09 339.983C1126.35 340.189 1117.66 338.486 1109.64 334.992C1102.95 332.08 1097.24 327.304 1093.18 321.234C1089.37 315.294 1087.39 308.359 1087.5 301.298C1087.5 289.443 1091.96 280.115 1100.89 273.314C1109.81 266.513 1123.59 263.107 1142.21 263.097H1171.57C1171.57 255.027 1169.12 248.824 1164.23 244.488C1159.33 240.151 1151.99 237.973 1142.21 237.952C1135.41 237.955 1128.66 239.04 1122.2 241.165C1116.16 243.018 1110.5 245.951 1105.5 249.823L1092.23 223.96C1099.82 218.763 1108.25 214.911 1117.14 212.573C1126.9 209.871 1136.98 208.512 1147.1 208.533C1166.89 208.533 1182.08 213.238 1192.66 222.649ZM1161.16 310.673C1166.06 307.741 1169.75 303.157 1171.57 297.742V284.701H1146.23C1131.07 284.701 1123.49 289.683 1123.49 299.645C1123.42 301.837 1123.89 304.014 1124.87 305.979C1125.84 307.944 1127.28 309.638 1129.07 310.907C1132.77 313.684 1137.87 315.072 1144.34 315.072C1150.24 315.179 1156.06 313.658 1161.16 310.673Z"/>
<path d="M1295.08 213.275C1303.32 209.999 1312.13 208.408 1321 208.595V242.757C1316.91 242.445 1314.13 242.289 1312.72 242.289C1302.15 242.289 1293.85 245.252 1287.8 251.18C1281.76 257.108 1278.76 266.009 1278.81 277.885V338.143H1241.9V210.436H1277.22V227.283C1281.74 221.027 1287.93 216.172 1295.08 213.275Z"/>
</mask>
<path d="M521.032 172L466.802 338.08H425.541L389.076 225.613L351.413 338.08H310.495L256 172H295.781L333.149 288.726L372.23 172H407.745L445.782 289.677L484.38 172H521.032Z" stroke="black" stroke-width="2" stroke-dasharray="2 2" mask="url(#path-1-inside-1_594_847)"/>
<path d="M654.419 284.701H558.041C559.577 292.301 563.991 299.01 570.357 303.42C576.813 308.006 584.863 310.299 594.506 310.299C600.518 310.407 606.498 309.403 612.146 307.335C617.503 305.216 622.375 302.032 626.471 297.976L646.136 319.331C634.126 333.089 616.599 339.973 593.556 339.983C580.358 340.247 567.288 337.359 555.425 331.56C544.844 326.372 535.971 318.251 529.859 308.162C523.773 297.909 520.657 286.162 520.86 274.235C520.696 262.368 523.764 250.682 529.734 240.432C535.541 230.491 543.987 222.358 554.133 216.94C564.715 211.474 576.438 208.592 588.344 208.53C600.25 208.468 612.002 211.227 622.641 216.582C632.624 221.848 640.888 229.878 646.447 239.715C652.372 250.409 655.355 262.489 655.088 274.718C655.078 275.197 654.855 278.524 654.419 284.701ZM567.974 243.646C562.184 248.586 558.465 255.532 557.558 263.097H620.321C619.359 255.584 615.647 248.697 609.904 243.77C604.061 238.882 596.634 236.307 589.025 236.532C581.362 236.281 573.866 238.806 567.912 243.646H567.974Z" stroke="black" stroke-width="2" stroke-dasharray="2 2" mask="url(#path-1-inside-1_594_847)"/>
<path d="M803.797 284.701H707.356C708.899 292.298 713.311 299.005 719.672 303.42C726.149 308.006 734.204 310.299 743.837 310.299C749.849 310.406 755.829 309.401 761.478 307.335C766.832 305.212 771.704 302.028 775.802 297.976L795.451 319.33C783.463 333.088 765.941 339.973 742.887 339.983C729.69 340.246 716.619 337.359 704.756 331.56C694.171 326.372 685.293 318.252 679.175 308.162C673.096 297.906 669.98 286.16 670.175 274.234C670.009 262.366 673.084 250.677 679.066 240.432C684.87 230.495 693.31 222.363 703.448 216.94C714.031 211.476 725.754 208.596 737.659 208.533C749.565 208.471 761.317 211.229 771.956 216.581C781.936 221.848 790.194 229.878 795.747 239.714C801.673 250.409 804.655 262.489 804.389 274.718C804.461 275.196 804.264 278.524 803.797 284.701ZM717.352 243.645C711.562 248.586 707.843 255.531 706.936 263.097H769.636C768.675 255.584 764.963 248.696 759.22 243.77C753.418 238.918 746.052 236.345 738.496 236.532C730.823 236.27 723.313 238.796 717.352 243.645Z" stroke="black" stroke-width="2" stroke-dasharray="2 2" mask="url(#path-1-inside-1_594_847)"/>
<path d="M944.815 222.774C954.53 232.258 959.388 246.333 959.388 265V338.08H922.441V270.693C922.441 260.565 920.23 253.015 915.808 248.044C911.386 243.073 904.992 240.583 896.626 240.572C887.284 240.572 879.862 243.458 874.361 249.23C868.859 255.001 866.098 263.58 866.077 274.967V338.08H829.13V210.435H864.411V225.379C869.464 219.879 875.706 215.61 882.659 212.9C890.299 209.901 898.448 208.418 906.653 208.532C922.389 208.532 935.109 213.28 944.815 222.774Z" stroke="black" stroke-width="2" stroke-dasharray="2 2" mask="url(#path-1-inside-1_594_847)"/>
<path d="M1074.95 331.903C1070.93 334.777 1066.38 336.833 1061.57 337.955C1056.11 339.323 1050.5 340.004 1044.87 339.983C1029.71 339.983 1017.99 336.104 1009.71 328.346C1001.43 320.589 997.275 309.202 997.255 294.185V241.82H977.621V213.274H997.27V182.202H1034.22V213.274H1065.95V241.82H1034.22V293.78C1034.22 299.146 1035.6 303.31 1038.36 306.259C1041.12 309.207 1045.02 310.658 1050.08 310.658C1055.44 310.831 1060.7 309.182 1065 305.978L1074.95 331.903Z" stroke="black" stroke-width="2" stroke-dasharray="2 2" mask="url(#path-1-inside-1_594_847)"/>
<path d="M1192.66 222.649C1203.22 232.071 1208.51 246.266 1208.52 265.234V338.08H1173.94V322.185C1167 334.04 1154.05 339.973 1135.09 339.983C1126.35 340.189 1117.66 338.486 1109.64 334.992C1102.95 332.08 1097.24 327.304 1093.18 321.234C1089.37 315.294 1087.39 308.359 1087.5 301.298C1087.5 289.443 1091.96 280.115 1100.89 273.314C1109.81 266.513 1123.59 263.107 1142.21 263.097H1171.57C1171.57 255.027 1169.12 248.824 1164.23 244.488C1159.33 240.151 1151.99 237.973 1142.21 237.952C1135.41 237.955 1128.66 239.04 1122.2 241.165C1116.16 243.018 1110.5 245.951 1105.5 249.823L1092.23 223.96C1099.82 218.763 1108.25 214.911 1117.14 212.573C1126.9 209.871 1136.98 208.512 1147.1 208.533C1166.89 208.533 1182.08 213.238 1192.66 222.649ZM1161.16 310.673C1166.06 307.741 1169.75 303.157 1171.57 297.742V284.701H1146.23C1131.07 284.701 1123.49 289.683 1123.49 299.645C1123.42 301.837 1123.89 304.014 1124.87 305.979C1125.84 307.944 1127.28 309.638 1129.07 310.907C1132.77 313.684 1137.87 315.072 1144.34 315.072C1150.24 315.179 1156.06 313.658 1161.16 310.673Z" stroke="black" stroke-width="2" stroke-dasharray="2 2" mask="url(#path-1-inside-1_594_847)"/>
<path d="M1295.08 213.275C1303.32 209.999 1312.13 208.408 1321 208.595V242.757C1316.91 242.445 1314.13 242.289 1312.72 242.289C1302.15 242.289 1293.85 245.252 1287.8 251.18C1281.76 257.108 1278.76 266.009 1278.81 277.885V338.143H1241.9V210.436H1277.22V227.283C1281.74 221.027 1287.93 216.172 1295.08 213.275Z" stroke="black" stroke-width="2" stroke-dasharray="2 2" mask="url(#path-1-inside-1_594_847)"/>
</g>
</svg>
